<svg width="3714" height="1000" viewBox="0 0 3714 1000" fill="none" xmlns="http://www.w3.org/2000/svg">
<path fill-rule="evenodd" clip-rule="evenodd" d="M450.39 219.388C451.891 218.677 453.649 218.676 455.15 219.388L455.468 219.551L741.427 378.547C744.923 380.491 745.097 385.331 741.736 387.502L552.986 498.224L742.246 608.224C745.676 610.283 745.676 616.165 742.246 618.224L455.832 781.406C454.08 782.457 451.462 782.462 449.711 781.406L163.753 617.724C160.336 615.663 159.826 610.785 163.243 608.724L353.013 498.224L163.753 387.724C160.392 385.553 160.619 380.491 164.115 378.547L450.072 219.551L450.39 219.388ZM248.946 613.224L452.772 724.609L658.074 613.224L549.926 550.265L479.527 593.367C463.203 602.867 442.797 602.867 426.473 593.367L356.074 550.265L248.946 613.224ZM362.706 498.224L452.999 558.224L545.334 498.224L452.999 438.224L362.706 498.224ZM248.946 383.224L356.074 448.224L427.493 403.061C443.186 393.597 462.797 393.633 478.507 403.061L549.926 448.224L658.074 383.224L452.77 275.163L248.946 383.224Z" fill="black"/>
<path fill-rule="evenodd" clip-rule="evenodd" d="M437.21 4.08262C446.982 -1.36087 459.018 -1.36088 468.79 4.08262C473.048 6.45452 578.397 65.1395 682.681 123.231C734.823 152.277 786.7 181.174 825.54 202.81C844.96 213.628 861.121 222.631 872.428 228.929C878.081 232.078 882.521 234.55 885.547 236.236C887.06 237.079 888.22 237.726 889.001 238.161C889.392 238.379 889.687 238.543 889.886 238.654C889.986 238.71 890.059 238.751 890.11 238.779C890.137 238.794 890.152 238.802 890.167 238.81C890.173 238.814 890.178 238.816 890.181 238.818C890.184 238.82 890.186 238.821 888.157 242.264L890.186 238.821C899.962 244.267 906 254.342 906 265.263V734.738C906 745.658 899.962 755.733 890.186 761.179L468.79 995.917C459.018 1001.36 446.982 1001.36 437.21 995.917L15.8142 761.179C6.03841 755.733 0.000133921 745.658 0 734.738V265.263C2.44132e-05 254.342 6.03827 244.267 15.8142 238.821L17.8428 242.264C15.8141 238.821 15.816 238.82 15.8192 238.818C15.8223 238.816 15.827 238.814 15.8331 238.81C15.8459 238.803 15.8647 238.793 15.8899 238.779C15.9401 238.751 16.0148 238.71 16.1141 238.654C16.3125 238.544 16.6085 238.379 16.9989 238.161C17.7803 237.726 18.9402 237.079 20.4532 236.236C23.4793 234.55 27.9193 232.078 33.5723 228.929C44.8785 222.631 61.0397 213.628 80.4599 202.81L223.319 123.231C327.603 65.1395 432.952 6.45452 437.21 4.08262ZM64.7144 283.731V716.268L453 932.562L841.286 716.268V283.731L453 67.4371L64.7144 283.731Z" fill="black"/>
<path d="M1510.21 742.568C1387.14 742.568 1264.07 742.568 1141 742.568V257.447H1504.82V320.782H1218.48V471.035H1480.57V533.023H1218.48V679.233H1510.21V742.568Z" fill="black"/>
<path d="M1733.69 382.77V439.367H1666.99V742.568H1594.9V439.367H1553.13V382.77H1594.9V369.294C1594.9 340.546 1599.39 317.413 1608.38 299.895C1617.81 282.377 1632.86 269.575 1653.52 261.49C1674.63 253.404 1702.7 249.586 1737.74 250.035V307.98C1718.42 307.531 1703.6 309.103 1693.27 312.697C1683.39 316.29 1676.42 322.13 1672.38 330.215C1668.79 337.851 1666.99 348.632 1666.99 362.557V382.77C1689.45 382.77 1711.68 382.77 1733.69 382.77Z" fill="black"/>
<path d="M1948.84 382.77V439.367H1882.14V742.568H1810.05V439.367H1768.28V382.77H1810.05V369.294C1810.05 340.546 1814.54 317.413 1823.53 299.895C1832.96 282.377 1848.01 269.575 1868.67 261.49C1889.78 253.404 1917.85 249.586 1952.89 250.035V307.98C1933.57 307.531 1918.75 309.103 1908.42 312.697C1898.54 316.29 1891.58 322.13 1887.53 330.215C1883.94 337.851 1882.14 348.632 1882.14 362.557V382.77C1904.6 382.77 1926.84 382.77 1948.84 382.77Z" fill="black"/>
<path d="M2332.65 589.62H2046.99C2051.03 621.512 2062.71 646.442 2082.02 664.409C2101.33 682.377 2126.26 691.585 2156.81 692.034C2182.86 692.483 2203.97 688.441 2220.14 679.906C2235.41 672.719 2248.44 660.591 2259.22 643.522L2321.2 665.083C2290.66 722.579 2235.63 750.878 2156.13 749.979C2119.3 749.979 2086.96 742.343 2059.11 727.071C2031.71 711.349 2010.6 689.564 1995.78 661.714C1980.96 633.416 1973.55 600.4 1973.55 562.669C1973.55 524.488 1980.96 491.473 1995.78 463.623C2010.6 435.325 2031.71 413.539 2059.11 398.267C2086.51 382.994 2118.85 375.358 2156.13 375.358C2193.86 375.358 2226.2 382.994 2253.15 398.267C2279.65 413.539 2299.64 435.325 2313.12 463.623C2327.04 491.922 2334 524.937 2334 562.669C2334 568.957 2333.55 577.941 2332.65 589.62ZM2261.24 537.065C2258.09 504.275 2247.31 478.896 2228.9 460.928C2210.93 442.512 2186.45 433.303 2155.46 433.303C2124.92 433.303 2099.76 442.736 2080 461.602C2060.24 480.019 2049.23 505.173 2046.99 537.065C2118.4 537.065 2189.82 537.065 2261.24 537.065Z" fill="black"/>
<path d="M2727.96 480.468L2664.63 500.007C2654.3 478.896 2640.15 462.95 2622.18 452.169C2604.66 441.389 2583.78 435.998 2559.52 435.998C2536.62 436.448 2516.63 442.287 2499.56 453.517C2482.94 464.297 2470.14 479.345 2461.16 498.66C2452.62 517.526 2448.35 539.087 2448.35 563.343C2448.35 587.149 2452.62 608.71 2461.16 628.025C2470.14 646.891 2482.94 661.714 2499.56 672.495C2516.63 683.275 2536.62 688.89 2559.52 689.339C2608.03 690.238 2643.07 669.126 2664.63 626.004L2727.96 644.87C2715.83 677.66 2695.62 703.264 2667.32 721.681C2637.68 740.996 2601.52 750.428 2558.85 749.979C2522.02 749.53 2489.68 741.669 2461.83 726.397C2434.43 710.676 2413.32 688.89 2398.5 661.04C2383.67 632.742 2376.26 599.951 2376.26 562.669C2376.26 525.386 2383.67 492.82 2398.5 464.971C2413.32 436.672 2434.43 414.887 2461.83 399.614C2489.68 383.893 2522.02 375.807 2558.85 375.358C2601.52 374.909 2637.9 384.342 2668 403.657C2696.29 422.074 2716.28 447.677 2727.96 480.468Z" fill="black"/>
<path d="M2956.33 382.77C2956.33 401.636 2956.33 420.501 2956.33 439.367H2886.94V631.394C2886.94 648.014 2889.18 659.918 2893.68 667.104C2898.62 673.842 2906.48 678.334 2917.26 680.58C2924.44 681.928 2937.47 682.377 2956.33 681.928V742.568H2952.97C2930.51 742.568 2913.89 742.119 2903.11 741.22C2885.14 739.873 2870.32 736.279 2858.64 730.44C2844.27 723.702 2833.49 713.82 2826.3 700.793C2818.22 685.521 2814.17 665.757 2814.17 641.501V439.367H2768.36V382.77H2814.17V289.788H2886.94V382.77H2956.33Z" fill="black"/>
<path d="M3178.57 382.77V439.367H3111.86V742.568H3039.77V439.367H2998V382.77H3039.77V369.294C3039.77 340.546 3044.26 317.413 3053.25 299.895C3062.68 282.377 3077.73 269.575 3098.39 261.49C3119.5 253.404 3147.57 249.586 3182.61 250.035V307.98C3163.29 307.531 3148.47 309.103 3138.14 312.697C3128.26 316.29 3121.3 322.13 3117.25 330.215C3113.66 337.851 3111.86 348.632 3111.86 362.557V382.77C3134.32 382.77 3156.56 382.77 3178.57 382.77Z" fill="black"/>
<path d="M3230.62 382.77C3254.88 382.77 3279.13 382.77 3303.39 382.77V586.251C3303.39 623.084 3309.23 649.137 3320.91 664.409C3333.93 680.58 3355.49 687.767 3385.58 685.97C3419.27 683.724 3445.32 668.003 3463.74 638.806C3482.6 609.609 3492.04 569.407 3492.04 518.199V382.77H3564.13V742.568H3492.04V661.04H3489.34C3479.91 686.644 3464.64 707.082 3443.53 722.354C3421.97 738.525 3395.69 747.509 3364.7 749.305C3324.27 751.551 3292.83 742.119 3270.37 721.007C3243.87 695.852 3230.62 654.303 3230.62 596.358V382.77Z" fill="black"/>
<path d="M3714 257.447C3714 419.154 3714 580.861 3714 742.568H3641.24V257.447H3714Z" fill="black"/>
</svg>
