<svg width="906" height="1000" viewBox="0 0 906 1000" fill="none" xmlns="http://www.w3.org/2000/svg">
<path fill-rule="evenodd" clip-rule="evenodd" d="M450.39 219.388C451.891 218.677 453.649 218.676 455.15 219.388L455.468 219.551L741.427 378.547C744.923 380.491 745.097 385.331 741.736 387.502L552.986 498.224L742.246 608.224C745.676 610.283 745.676 616.165 742.246 618.224L455.832 781.406C454.08 782.457 451.462 782.462 449.711 781.406L163.753 617.724C160.336 615.663 159.826 610.785 163.243 608.724L353.013 498.224L163.753 387.724C160.392 385.553 160.619 380.491 164.115 378.547L450.072 219.551L450.39 219.388ZM248.946 613.224L452.772 724.609L658.074 613.224L549.926 550.265L479.527 593.367C463.203 602.867 442.797 602.867 426.473 593.367L356.074 550.265L248.946 613.224ZM362.706 498.224L452.999 558.224L545.334 498.224L452.999 438.224L362.706 498.224ZM248.946 383.224L356.074 448.224L427.493 403.061C443.186 393.597 462.797 393.633 478.507 403.061L549.926 448.224L658.074 383.224L452.77 275.163L248.946 383.224Z" fill="black"/>
<path fill-rule="evenodd" clip-rule="evenodd" d="M437.21 4.08262C446.982 -1.36087 459.018 -1.36088 468.79 4.08262C473.048 6.45452 578.397 65.1395 682.681 123.231C734.823 152.277 786.7 181.174 825.54 202.81C844.96 213.628 861.121 222.631 872.428 228.929C878.081 232.078 882.521 234.55 885.547 236.236C887.06 237.079 888.22 237.726 889.001 238.161C889.392 238.379 889.687 238.543 889.886 238.654C889.986 238.71 890.059 238.751 890.11 238.779C890.137 238.794 890.152 238.802 890.167 238.81C890.173 238.814 890.178 238.816 890.181 238.818C890.184 238.82 890.186 238.821 888.157 242.264L890.186 238.821C899.962 244.267 906 254.342 906 265.263V734.738C906 745.658 899.962 755.733 890.186 761.179L468.79 995.917C459.018 1001.36 446.982 1001.36 437.21 995.917L15.8142 761.179C6.03841 755.733 0.000133921 745.658 0 734.738V265.263C2.44132e-05 254.342 6.03827 244.267 15.8142 238.821L17.8428 242.264C15.8141 238.821 15.816 238.82 15.8192 238.818C15.8223 238.816 15.827 238.814 15.8331 238.81C15.8459 238.803 15.8647 238.793 15.8899 238.779C15.9401 238.751 16.0148 238.71 16.1141 238.654C16.3125 238.544 16.6085 238.379 16.9989 238.161C17.7803 237.726 18.9402 237.079 20.4532 236.236C23.4793 234.55 27.9193 232.078 33.5723 228.929C44.8785 222.631 61.0397 213.628 80.4599 202.81L223.319 123.231C327.603 65.1395 432.952 6.45452 437.21 4.08262ZM64.7144 283.731V716.268L453 932.562L841.286 716.268V283.731L453 67.4371L64.7144 283.731Z" fill="black"/>
</svg>
